# xmcd
#
# Track frame offsets:
#	150
#	14483
#	32954
#	49153
#	72918
#	84298
#	106614
#	121219
#	140178
#	152690
#	173028
#	193944
#
# Disc length: 2872 seconds
#
# Revision: 0
# Processed by: cddbd v1.5PL3 Copyright (c) Steve Scherf et al.
# Submitted via: dBpowerAMP V4.0
#
DISCID=a00b360c
DTITLE=Jimmy and David Lee Kaiser - Spurlock Road
DYEAR=1900
DGENRE=Texas Country
TTITLE0=Best Times
TTITLE1=Austin
TTITLE2=Psycho
TTITLE3=Always Searching
TTITLE4=Lookin At Cows
TTITLE5=Galveston Lights
TTITLE6=Seven
TTITLE7=November
TTITLE8=Ringo
TTITLE9=Summer Days
TTITLE10=South Stage
TTITLE11=Walk
EXTD=Texas Country
EXTT0=
EXTT1=
EXTT2=
EXTT3=
EXTT4=
EXTT5=
EXTT6=
EXTT7=
EXTT8=
EXTT9=
EXTT10=
EXTT11=
PLAYORDER=
